<svg width="218" height="122" viewBox="0 0 218 122" fill="none" xmlns="http://www.w3.org/2000/svg">
<g filter="url(#filter0_dd_4632_11228)">
<rect x="11" y="6.6001" width="196" height="100" rx="8" fill="white"/>
<rect x="11.5" y="7.1001" width="195" height="99" rx="7.5" stroke="#E2E5F1"/>
<path d="M73.5197 51.8501C73.8797 51.8501 73.9997 51.9801 73.9997 52.3301V60.2501H78.0697C78.4197 60.2501 78.5497 60.3801 78.5497 60.7301V61.4301C78.5497 61.7801 78.4197 61.9101 78.0697 61.9101H72.7097C72.3597 61.9101 72.2197 61.7801 72.2197 61.4301V52.3301C72.2197 51.9801 72.3597 51.8501 72.7097 51.8501H73.5197Z" fill="#B4B7C9"/>
<path d="M82.0996 55.3401C82.0996 53.0301 83.5596 51.6401 86.0996 51.6401C88.6396 51.6401 90.0996 53.0301 90.0996 55.3401V58.4201C90.0996 60.7301 88.6296 62.1201 86.0996 62.1201C83.5696 62.1201 82.0996 60.7301 82.0996 58.4201V55.3401ZM88.4196 55.3401C88.4196 54.0401 87.6096 53.3401 86.1496 53.3401C84.6896 53.3401 83.8896 54.0501 83.8896 55.3401V58.4401C83.8896 59.7501 84.6896 60.4401 86.1496 60.4401C87.6096 60.4401 88.4196 59.7201 88.4196 58.4401V55.3401Z" fill="#B4B7C9"/>
<path d="M102.01 56.4001C102.4 56.4001 102.49 56.5301 102.49 56.8801V58.7801C102.5 59.2276 102.411 59.6719 102.227 60.0802C102.044 60.4886 101.771 60.8507 101.43 61.1401C100.581 61.8156 99.5118 62.1507 98.4297 62.0801C95.8397 62.0801 94.4297 60.6901 94.4297 58.3801V55.2801C94.4297 53.0001 95.8897 51.6001 98.4297 51.6001C100.43 51.6001 101.73 52.3901 102.28 53.9701C102.31 54.0295 102.327 54.0952 102.328 54.162C102.329 54.2289 102.314 54.2951 102.285 54.3552C102.256 54.4154 102.213 54.468 102.16 54.5088C102.107 54.5495 102.045 54.5774 101.98 54.5901L101.2 54.8601C100.86 54.9801 100.72 54.9101 100.6 54.5601C100.434 54.133 100.131 53.7732 99.7377 53.5378C99.3447 53.3024 98.8845 53.2046 98.4297 53.2601C96.9597 53.2601 96.1597 53.9701 96.1597 55.2601V58.4401C96.1597 59.7501 96.9697 60.4401 98.4297 60.4401C99.8897 60.4401 100.79 59.7701 100.79 58.7901V58.0501H98.6197C98.2597 58.0501 98.1297 57.9101 98.1297 57.5601V56.8801C98.1297 56.5301 98.2597 56.4001 98.6197 56.4001H102.01Z" fill="#B4B7C9"/>
<path d="M106.62 55.3401C106.62 53.0301 108.08 51.6401 110.62 51.6401C113.16 51.6401 114.62 53.0301 114.62 55.3401V58.4201C114.62 60.7301 113.15 62.1201 110.62 62.1201C108.09 62.1201 106.62 60.7301 106.62 58.4201V55.3401ZM112.93 55.3401C112.93 54.0401 112.12 53.3401 110.67 53.3401C109.22 53.3401 108.4 54.0501 108.4 55.3401V58.4401C108.4 59.7501 109.21 60.4401 110.67 60.4401C112.13 60.4401 112.93 59.7201 112.93 58.4401V55.3401Z" fill="#B4B7C9"/>
<path d="M119.33 52.1401C119.33 51.9201 119.4 51.8501 119.62 51.8501H120.08C120.3 51.8501 120.35 51.9201 120.35 52.1401V61.6201C120.35 61.8401 120.35 61.9101 120.08 61.9101H119.62C119.4 61.9101 119.33 61.8401 119.33 61.6201V52.1401Z" fill="#B4B7C9"/>
<path d="M129.46 51.8501C130.293 51.8501 131.092 52.1809 131.681 52.7698C132.27 53.3586 132.6 54.1573 132.6 54.9901C132.6 55.8229 132.27 56.6216 131.681 57.2104C131.092 57.7993 130.293 58.1301 129.46 58.1301H126.46V61.6201C126.46 61.8401 126.41 61.9101 126.2 61.9101H125.73C125.52 61.9101 125.44 61.8401 125.44 61.6201V52.1401C125.44 51.9201 125.52 51.8501 125.73 51.8501H129.46ZM129.37 57.1401C129.657 57.1401 129.94 57.0837 130.205 56.9742C130.469 56.8646 130.71 56.704 130.912 56.5016C131.114 56.2992 131.275 56.0588 131.385 55.7944C131.494 55.5299 131.55 55.2464 131.55 54.9601C131.55 54.6738 131.494 54.3903 131.385 54.1258C131.275 53.8614 131.114 53.621 130.912 53.4186C130.71 53.2162 130.469 53.0556 130.205 52.946C129.94 52.8365 129.657 52.7801 129.37 52.7801H126.37V57.1401H129.37Z" fill="#B4B7C9"/>
<path d="M140.41 51.6502C141.182 51.565 141.961 51.7311 142.632 52.1238C143.301 52.5166 143.827 53.115 144.13 53.8302C144.21 53.9902 144.13 54.1202 143.97 54.2002L143.53 54.4002C143.35 54.4702 143.28 54.4602 143.17 54.2702C142.944 53.7394 142.554 53.2944 142.058 52.9996C141.562 52.7048 140.985 52.5754 140.41 52.6302C138.72 52.6302 137.8 53.3002 137.8 54.5002C137.791 54.8669 137.914 55.2249 138.147 55.5079C138.381 55.7909 138.708 55.98 139.07 56.0402C139.608 56.2156 140.166 56.3231 140.73 56.3602C141.414 56.3966 142.088 56.5348 142.73 56.7702C143.223 56.9261 143.647 57.2467 143.931 57.6783C144.215 58.1099 144.342 58.6261 144.29 59.1402C144.29 61.0102 142.93 62.1402 140.43 62.1402C139.61 62.234 138.783 62.044 138.086 61.6018C137.389 61.1597 136.865 60.492 136.6 59.7102C136.583 59.6746 136.573 59.6355 136.572 59.5957C136.572 59.5559 136.58 59.5165 136.596 59.4802C136.612 59.4439 136.636 59.4116 136.666 59.3857C136.696 59.3597 136.732 59.3408 136.77 59.3302L137.21 59.1702C137.245 59.156 137.282 59.1492 137.32 59.1502C137.357 59.1512 137.394 59.16 137.428 59.176C137.462 59.192 137.492 59.2148 137.516 59.2431C137.541 59.2714 137.559 59.3044 137.57 59.3402C137.794 59.9051 138.192 60.3841 138.706 60.7078C139.22 61.0314 139.824 61.1829 140.43 61.1402C142.32 61.1402 143.25 60.4802 143.25 59.1402C143.268 58.788 143.16 58.4409 142.946 58.1607C142.732 57.8806 142.425 57.6855 142.08 57.6102C141.563 57.4559 141.029 57.3619 140.49 57.3302L139.41 57.1902C139.072 57.1185 138.739 57.0283 138.41 56.9202C138.086 56.8223 137.784 56.6627 137.52 56.4502C137.255 56.21 137.046 55.9144 136.908 55.5843C136.769 55.2542 136.705 54.8978 136.72 54.5402C136.79 52.7902 138.1 51.6502 140.41 51.6502Z" fill="#B4B7C9"/>
<path d="M149.68 58.4901C149.722 59.1973 150.033 59.8616 150.549 60.3473C151.065 60.833 151.747 61.1034 152.455 61.1034C153.163 61.1034 153.845 60.833 154.361 60.3473C154.877 59.8616 155.187 59.1973 155.23 58.4901V52.1401C155.23 51.9201 155.3 51.8501 155.52 51.8501H155.98C156.2 51.8501 156.27 51.9201 156.27 52.1401V58.4801C156.27 60.7501 154.93 62.1201 152.46 62.1201C149.99 62.1201 148.65 60.7501 148.65 58.4801V52.1401C148.65 51.9201 148.72 51.8501 148.93 51.8501H149.4C149.61 51.8501 149.68 51.9201 149.68 52.1401V58.4901Z" fill="#B4B7C9"/>
<path d="M170.07 51.8501C170.29 51.8501 170.36 51.9201 170.36 52.1401V61.6201C170.36 61.8401 170.29 61.9101 170.07 61.9101H169.65C169.44 61.9101 169.37 61.8401 169.37 61.6201V55.8501C169.37 55.0106 169.427 54.172 169.54 53.3401H169.48C169.168 54.1008 168.803 54.8392 168.39 55.5501L166.24 59.3401C166.214 59.4059 166.168 59.4621 166.109 59.5014C166.05 59.5406 165.981 59.5611 165.91 59.5601H165.63C165.558 59.5605 165.488 59.5398 165.427 59.5008C165.367 59.4617 165.319 59.4059 165.29 59.3401L163.11 55.5101C162.723 54.8094 162.389 54.0807 162.11 53.3301H162.05C162.152 54.1696 162.206 55.0144 162.21 55.8601V61.6201C162.21 61.8401 162.14 61.9101 161.92 61.9101H161.53C161.31 61.9101 161.24 61.8401 161.24 61.6201V52.1401C161.24 51.9201 161.31 51.8501 161.53 51.8501H161.89C161.972 51.8425 162.055 51.8604 162.126 51.9016C162.198 51.9428 162.255 52.0052 162.29 52.0801L165.79 58.3001L169.27 52.1401C169.38 51.9301 169.44 51.9001 169.66 51.9001L170.07 51.8501Z" fill="#B4B7C9"/>
<path d="M55.73 60.3901V67.6201C55.73 67.8973 55.6199 68.1631 55.4239 68.359C55.228 68.555 54.9622 68.6651 54.685 68.6651C54.4079 68.6651 54.1421 68.555 53.9461 68.359C53.7501 68.1631 53.64 67.8973 53.64 67.6201V60.4001C53.931 60.6126 54.2798 60.7312 54.64 60.7401C55.0326 60.7513 55.4173 60.6278 55.73 60.3901ZM64.63 58.3001C64.3648 58.3001 64.1104 58.4055 63.9229 58.593C63.7354 58.7805 63.63 59.0349 63.63 59.3001V60.5601C63.63 60.8373 63.7401 61.1031 63.9361 61.299C64.132 61.495 64.3978 61.6051 64.675 61.6051C64.9522 61.6051 65.218 61.495 65.4139 61.299C65.6099 61.1031 65.72 60.8373 65.72 60.5601V59.3501C65.7278 59.2067 65.7046 59.0633 65.652 58.9297C65.5994 58.7961 65.5187 58.6753 65.4152 58.5757C65.3118 58.4761 65.1881 58.3999 65.0527 58.3523C64.9172 58.3048 64.773 58.287 64.63 58.3001ZM51.37 63.1301C51.0102 63.1193 50.6618 63.0009 50.37 62.7901V70.0401C50.37 70.3186 50.4806 70.5857 50.6775 70.7826C50.8744 70.9795 51.1415 71.0901 51.42 71.0901C51.6985 71.0901 51.9656 70.9795 52.1625 70.7826C52.3594 70.5857 52.47 70.3186 52.47 70.0401V62.8401C52.1435 63.0512 51.7582 63.1528 51.37 63.1301ZM61.37 56.1301C61.2345 56.1233 61.0991 56.1442 60.9719 56.1914C60.8448 56.2386 60.7286 56.3112 60.6303 56.4047C60.5321 56.4983 60.454 56.6108 60.4006 56.7355C60.3473 56.8602 60.3198 56.9945 60.32 57.1301V62.7001C60.32 62.9786 60.4306 63.2457 60.6275 63.4426C60.8245 63.6395 61.0915 63.7501 61.37 63.7501C61.6485 63.7501 61.9156 63.6395 62.1125 63.4426C62.3094 63.2457 62.42 62.9786 62.42 62.7001V57.2001C62.428 57.0558 62.4046 56.9115 62.3514 56.7771C62.2982 56.6427 62.2166 56.5214 62.112 56.4216C62.0074 56.3218 61.8825 56.2458 61.7458 56.199C61.6091 56.1521 61.4638 56.1354 61.32 56.1501L61.37 56.1301ZM58.05 58.2701C57.6733 58.2675 57.3067 58.1488 57 57.9301V65.2001C57 65.4786 57.1106 65.7457 57.3075 65.9426C57.5045 66.1395 57.7715 66.2501 58.05 66.2501C58.3285 66.2501 58.5955 66.1395 58.7925 65.9426C58.9894 65.7457 59.1 65.4786 59.1 65.2001V57.9401C58.7828 58.1764 58.3955 58.2996 58 58.2901L58.05 58.2701ZM49.1 63.8401V43.5301C49.0974 43.2825 48.9972 43.046 48.8212 42.8719C48.6452 42.6977 48.4076 42.6001 48.16 42.6001H47.94C47.6924 42.6001 47.4548 42.6977 47.2788 42.8719C47.1028 43.046 47.0026 43.2825 47 43.5301V63.8401C47 64.0894 47.099 64.3285 47.2753 64.5048C47.4516 64.6811 47.6907 64.7801 47.94 64.7801H48.16C48.4093 64.7801 48.6484 64.6811 48.8247 64.5048C49.001 64.3285 49.1 64.0894 49.1 63.8401ZM51.48 62.3601H51.26C51.0107 62.3601 50.7716 62.2611 50.5953 62.0848C50.419 61.9085 50.32 61.6694 50.32 61.4201V45.9501C50.3226 45.7025 50.4228 45.466 50.5988 45.2919C50.7748 45.1177 51.0124 45.0201 51.26 45.0201H51.48C51.7276 45.0201 51.9652 45.1177 52.1412 45.2919C52.3172 45.466 52.4174 45.7025 52.42 45.9501V61.4401C52.42 61.6894 52.321 61.9285 52.1447 62.1048C51.9684 62.2811 51.7293 62.3801 51.48 62.3801V62.3601ZM54.79 59.9801H54.56C54.3134 59.9801 54.0768 59.8821 53.9024 59.7077C53.728 59.5333 53.63 59.2968 53.63 59.0501V48.3501C53.6287 48.2271 53.6518 48.1051 53.6979 47.9911C53.744 47.8771 53.8123 47.7734 53.8988 47.686C53.9853 47.5986 54.0883 47.5292 54.2018 47.4818C54.3153 47.4345 54.437 47.4101 54.56 47.4101H54.79C55.0376 47.4127 55.2741 47.5129 55.4482 47.6889C55.6224 47.8649 55.72 48.1025 55.72 48.3501V59.0501C55.72 59.2968 55.622 59.5333 55.4476 59.7077C55.2732 59.8821 55.0367 59.9801 54.79 59.9801ZM58.1 57.5301H57.89C57.6424 57.5301 57.4048 57.4325 57.2288 57.2583C57.0528 57.0842 56.9526 56.8477 56.95 56.6001V50.8401C56.9418 50.7117 56.96 50.583 57.0036 50.4619C57.0471 50.3409 57.1151 50.23 57.2032 50.1363C57.2913 50.0425 57.3977 49.9679 57.5159 49.9169C57.634 49.866 57.7613 49.8398 57.89 49.8401H58.11C58.3593 49.8401 58.5984 49.9391 58.7747 50.1154C58.951 50.2917 59.05 50.5308 59.05 50.7801V56.5801C59.0513 56.7044 59.028 56.8277 58.9813 56.9429C58.9347 57.0581 58.8657 57.1629 58.7782 57.2513C58.6908 57.3396 58.5868 57.4097 58.472 57.4576C58.3573 57.5055 58.2343 57.5301 58.11 57.5301H58.1ZM61.42 55.3801H61.2C60.9507 55.3801 60.7116 55.2811 60.5353 55.1048C60.359 54.9285 60.26 54.6894 60.26 54.4401V52.9501C60.2626 52.7025 60.3628 52.466 60.5388 52.2919C60.7148 52.1177 60.9524 52.0201 61.2 52.0201H61.42C61.6676 52.0201 61.9052 52.1177 62.0812 52.2919C62.2572 52.466 62.3574 52.7025 62.36 52.9501V54.4401C62.36 54.6877 62.2624 54.9253 62.0882 55.1013C61.9141 55.2773 61.6776 55.3775 61.43 55.3801H61.42Z" fill="#B4B7C9"/>
</g>
<defs>
<filter id="filter0_dd_4632_11228" x="0" y="9.77516e-05" width="218" height="122" filterUnits="userSpaceOnUse" color-interpolation-filters="sRGB">
<feFlood flood-opacity="0" result="BackgroundImageFix"/>
<feColorMatrix in="SourceAlpha" type="matrix" values="0 0 0 0 0 0 0 0 0 0 0 0 0 0 0 0 0 0 127 0" result="hardAlpha"/>
<feMorphology radius="1" operator="erode" in="SourceAlpha" result="effect1_dropShadow_4632_11228"/>
<feOffset dy="2"/>
<feGaussianBlur stdDeviation="3.2"/>
<feColorMatrix type="matrix" values="0 0 0 0 0.0745098 0 0 0 0 0.0627451 0 0 0 0 0.133333 0 0 0 0.03 0"/>
<feBlend mode="normal" in2="BackgroundImageFix" result="effect1_dropShadow_4632_11228"/>
<feColorMatrix in="SourceAlpha" type="matrix" values="0 0 0 0 0 0 0 0 0 0 0 0 0 0 0 0 0 0 127 0" result="hardAlpha"/>
<feMorphology radius="1" operator="erode" in="SourceAlpha" result="effect2_dropShadow_4632_11228"/>
<feOffset dy="4.4"/>
<feGaussianBlur stdDeviation="6"/>
<feColorMatrix type="matrix" values="0 0 0 0 0.0745098 0 0 0 0 0.0627451 0 0 0 0 0.133333 0 0 0 0.06 0"/>
<feBlend mode="normal" in2="effect1_dropShadow_4632_11228" result="effect2_dropShadow_4632_11228"/>
<feBlend mode="normal" in="SourceGraphic" in2="effect2_dropShadow_4632_11228" result="shape"/>
</filter>
</defs>
</svg>
